<?xml version="1.0" encoding="UTF-8"?>
<svg  viewBox="0 0 232 67" version="1.1" xmlns="http://www.w3.org/2000/svg" xmlns:xlink="http://www.w3.org/1999/xlink">
    <g id="Page-1" stroke="none" stroke-width="1" fill="none" fill-rule="evenodd">
        <g id="Elitizon-Copy" transform="translate(-11.000000, -146.000000)">
            <g id="Logo" transform="translate(11.676000, 146.000000)">
                <path d="M19.512,60.936 C24.912,60.936 28.5801035,61.3500977 33.1465098,57.6860352 L29.5669199,51.39 C27.5509199,53.478 22.896,52.944 19.656,52.944 C13.464,52.944 9.648,49.776 9.072,45.384 L36.792,45.384 C38.16,30.768 30.744,23.424 18.864,23.424 C7.344,23.424 -5.68434189e-14,31.2 -5.68434189e-14,42 C-5.68434189e-14,53.376 7.272,60.936 19.512,60.936 Z M28.368,38.112 L9.216,38.112 C10.512,33.504 14.4,31.2 19.152,31.2 C24.192,31.2 27.792,33.504 28.368,38.112 Z M52.272,60 L52.272,2.13162821e-14 L43.56,2.13162821e-14 L43.56,60 L52.272,60 Z M68.76,60 L68.76,24.36 L59.976,24.36 L59.976,60 L68.76,60 Z M93.024,60.432 C95.688,60.36 97.776,59.928 100.296,58.92 L97.848,51.432 C96.552,52.08 94.968,52.512 93.6,52.512 C90.864,52.512 88.992,50.856 88.992,47.472 L88.992,32.136 L98.856,32.136 L98.856,24.576 L89.064,24.576 L89.064,14.496 L80.28,15.432 L80.28,24.576 L73.656,24.576 L73.656,32.136 L80.28,32.136 L80.28,47.472 C80.28,56.328 85.32,60.72 93.024,60.432 Z M114.192,60 L114.192,24.36 L105.408,24.36 L105.408,60 L114.192,60 Z M149.76,60 L149.76,51.36 L133.272,51.36 L149.616,28.68 L149.616,24.504 L121.176,24.504 L121.176,32.496 L136.872,32.496 L119.88,56.328 L119.88,60 L149.76,60 Z M171.792,60.792 C183.312,60.792 190.296,52.512 190.296,42.288 C190.296,32.136 183.024,23.784 171.72,23.784 C160.416,23.784 153.36,32.136 153.36,42.288 C153.36,52.512 160.272,60.792 171.792,60.792 Z M171.792,52.728 C165.384,52.728 162.144,47.688 162.144,42.288 C162.144,36.96 165.456,31.776 171.792,31.776 C177.696,31.776 181.44,36.96 181.44,42.288 C181.44,47.688 178.2,52.728 171.792,52.728 Z M204.84,60 L204.84,41.856 C204.84,36.456 208.512,31.92 213.912,31.92 C219.528,31.92 222.48,36.024 222.48,41.424 L222.48,60 L231.264,60 L231.264,41.352 C231.264,30.192 224.568,23.928 216.216,23.928 C211.752,23.928 208.152,25.728 204.552,29.256 L203.976,24.432 L196.128,24.432 L196.128,60 L204.84,60 Z" id="elitizon" fill="#2A3045" fill-rule="nonzero"></path>
                <rect id="Rectangle" fill="#FA3366" x="105.324" y="13" width="8.78" height="8.78" rx="4.39"></rect>
                <rect id="Rectangle" fill="#FA3366" x="32.324" y="48" width="8.78" height="8.78" rx="4.39"></rect>
                <rect id="Rectangle" fill="#FA3366" x="119.324" y="64" width="112" height="3"></rect>
            </g>
        </g>
    </g>
</svg>